<svg width="380" height="75" viewBox="0 0 380 75" fill="none" xmlns="http://www.w3.org/2000/svg">
<path d="M192.616 26.74V1.18H209.644V4.744H196.648V12.376H207.52V15.724H196.648V26.74H192.616Z" fill="black"/>
<path d="M223.662 26.92C221.814 26.92 220.146 26.56 218.658 25.84C217.17 25.12 215.886 24.148 214.806 22.924C213.726 21.676 212.886 20.284 212.286 18.748C211.71 17.188 211.422 15.592 211.422 13.96C211.422 12.256 211.734 10.636 212.358 9.1C212.982 7.54 213.846 6.16 214.95 4.96C216.054 3.736 217.35 2.776 218.838 2.08C220.35 1.36 221.982 1 223.734 1C225.558 1 227.214 1.372 228.702 2.116C230.214 2.86 231.498 3.856 232.554 5.104C233.634 6.352 234.462 7.744 235.038 9.28C235.638 10.816 235.938 12.388 235.938 13.996C235.938 15.7 235.626 17.332 235.002 18.892C234.402 20.428 233.55 21.808 232.446 23.032C231.342 24.232 230.034 25.18 228.522 25.876C227.034 26.572 225.414 26.92 223.662 26.92ZM215.526 13.96C215.526 15.16 215.718 16.324 216.102 17.452C216.486 18.58 217.026 19.588 217.722 20.476C218.442 21.34 219.306 22.024 220.314 22.528C221.322 23.032 222.45 23.284 223.698 23.284C224.994 23.284 226.146 23.02 227.154 22.492C228.162 21.964 229.002 21.256 229.674 20.368C230.37 19.456 230.898 18.448 231.258 17.344C231.618 16.216 231.798 15.088 231.798 13.96C231.798 12.76 231.606 11.608 231.222 10.504C230.862 9.376 230.322 8.38 229.602 7.516C228.882 6.628 228.018 5.932 227.01 5.428C226.026 4.924 224.922 4.672 223.698 4.672C222.402 4.672 221.25 4.936 220.242 5.464C219.234 5.992 218.382 6.7 217.686 7.588C216.99 8.476 216.45 9.472 216.066 10.576C215.706 11.68 215.526 12.808 215.526 13.96Z" fill="black"/>
<path d="M258.165 4.744H249.669V26.74H245.601V4.744H237.069V1.18H258.165V4.744Z" fill="black"/>
<path d="M271.509 26.92C269.661 26.92 267.993 26.56 266.505 25.84C265.017 25.12 263.733 24.148 262.653 22.924C261.573 21.676 260.733 20.284 260.133 18.748C259.557 17.188 259.269 15.592 259.269 13.96C259.269 12.256 259.581 10.636 260.205 9.1C260.829 7.54 261.693 6.16 262.797 4.96C263.901 3.736 265.197 2.776 266.685 2.08C268.197 1.36 269.829 1 271.581 1C273.405 1 275.061 1.372 276.549 2.116C278.061 2.86 279.345 3.856 280.401 5.104C281.481 6.352 282.309 7.744 282.885 9.28C283.485 10.816 283.785 12.388 283.785 13.996C283.785 15.7 283.473 17.332 282.849 18.892C282.249 20.428 281.397 21.808 280.293 23.032C279.189 24.232 277.881 25.18 276.369 25.876C274.881 26.572 273.261 26.92 271.509 26.92ZM263.373 13.96C263.373 15.16 263.565 16.324 263.949 17.452C264.333 18.58 264.873 19.588 265.569 20.476C266.289 21.34 267.153 22.024 268.161 22.528C269.169 23.032 270.297 23.284 271.545 23.284C272.841 23.284 273.993 23.02 275.001 22.492C276.009 21.964 276.849 21.256 277.521 20.368C278.217 19.456 278.745 18.448 279.105 17.344C279.465 16.216 279.645 15.088 279.645 13.96C279.645 12.76 279.453 11.608 279.069 10.504C278.709 9.376 278.169 8.38 277.449 7.516C276.729 6.628 275.865 5.932 274.857 5.428C273.873 4.924 272.769 4.672 271.545 4.672C270.249 4.672 269.097 4.936 268.089 5.464C267.081 5.992 266.229 6.7 265.533 7.588C264.837 8.476 264.297 9.472 263.913 10.576C263.553 11.68 263.373 12.808 263.373 13.96Z" fill="black"/>
<path d="M286.34 13.78C286.34 12.22 286.616 10.696 287.168 9.208C287.72 7.696 288.524 6.328 289.58 5.104C290.66 3.856 291.968 2.872 293.504 2.152C295.04 1.408 296.78 1.036 298.724 1.036C301.028 1.036 303.02 1.564 304.7 2.62C306.38 3.652 307.628 4.984 308.444 6.616L305.276 8.74C304.796 7.708 304.184 6.892 303.44 6.292C302.72 5.692 301.928 5.272 301.064 5.032C300.224 4.792 299.396 4.672 298.58 4.672C297.236 4.672 296.06 4.948 295.052 5.5C294.044 6.028 293.192 6.736 292.496 7.624C291.824 8.512 291.308 9.508 290.948 10.612C290.612 11.716 290.444 12.82 290.444 13.924C290.444 15.148 290.648 16.336 291.056 17.488C291.464 18.616 292.028 19.624 292.748 20.512C293.492 21.376 294.368 22.06 295.376 22.564C296.384 23.068 297.488 23.32 298.688 23.32C299.504 23.32 300.356 23.176 301.244 22.888C302.132 22.6 302.948 22.156 303.692 21.556C304.46 20.932 305.06 20.116 305.492 19.108L308.84 21.016C308.312 22.288 307.484 23.368 306.356 24.256C305.252 25.144 304.004 25.816 302.612 26.272C301.244 26.728 299.888 26.956 298.544 26.956C296.744 26.956 295.1 26.584 293.612 25.84C292.124 25.072 290.84 24.064 289.76 22.816C288.68 21.544 287.84 20.128 287.24 18.568C286.64 16.984 286.34 15.388 286.34 13.78Z" fill="black"/>
<path d="M312.569 26.74V1.18H316.601V23.176H330.317V26.74H312.569Z" fill="black"/>
<path d="M343.475 26.92C341.435 26.92 339.707 26.572 338.291 25.876C336.899 25.18 335.771 24.232 334.907 23.032C334.067 21.832 333.443 20.464 333.035 18.928C332.651 17.392 332.459 15.796 332.459 14.14V1.18H336.491V14.14C336.491 15.316 336.611 16.456 336.851 17.56C337.091 18.64 337.475 19.612 338.003 20.476C338.531 21.34 339.239 22.024 340.127 22.528C341.039 23.032 342.155 23.284 343.475 23.284C344.819 23.284 345.935 23.032 346.823 22.528C347.735 22 348.443 21.304 348.947 20.44C349.475 19.552 349.859 18.568 350.099 17.488C350.339 16.408 350.459 15.292 350.459 14.14V1.18H354.527V14.14C354.527 15.892 354.311 17.548 353.879 19.108C353.471 20.644 352.823 22 351.935 23.176C351.071 24.328 349.943 25.24 348.551 25.912C347.159 26.584 345.467 26.92 343.475 26.92Z" fill="black"/>
<path d="M379.977 20.152C379.977 21.52 379.617 22.696 378.897 23.68C378.201 24.664 377.253 25.42 376.053 25.948C374.853 26.476 373.533 26.74 372.093 26.74H359.889V1.18H373.065C374.265 1.18 375.297 1.504 376.161 2.152C377.049 2.776 377.721 3.592 378.177 4.6C378.657 5.584 378.897 6.616 378.897 7.696C378.897 8.944 378.573 10.12 377.925 11.224C377.301 12.304 376.401 13.108 375.225 13.636C376.689 14.068 377.841 14.86 378.681 16.012C379.545 17.14 379.977 18.52 379.977 20.152ZM375.837 19.396C375.837 18.676 375.681 18.028 375.369 17.452C375.081 16.852 374.673 16.372 374.145 16.012C373.641 15.628 373.041 15.436 372.345 15.436H363.921V23.248H372.093C372.813 23.248 373.449 23.08 374.001 22.744C374.577 22.384 375.021 21.916 375.333 21.34C375.669 20.74 375.837 20.092 375.837 19.396ZM363.921 4.672V12.196H371.337C372.009 12.196 372.609 12.04 373.137 11.728C373.665 11.392 374.085 10.948 374.397 10.396C374.709 9.82 374.865 9.172 374.865 8.452C374.865 7.708 374.721 7.06 374.433 6.508C374.145 5.932 373.749 5.488 373.245 5.176C372.765 4.84 372.201 4.672 371.553 4.672H363.921Z" fill="black"/>
<path d="M0 66.74V32.66H15.36C16.96 32.66 18.432 32.996 19.776 33.668C21.152 34.308 22.336 35.188 23.328 36.308C24.32 37.396 25.088 38.628 25.632 40.004C26.208 41.38 26.496 42.772 26.496 44.18C26.496 45.588 26.272 46.932 25.824 48.212C25.376 49.46 24.736 50.596 23.904 51.62C23.072 52.612 22.08 53.428 20.928 54.068L28.416 66.74H19.728L13.2 55.748H7.872V66.74H0ZM7.872 48.884H15.072C15.712 48.884 16.272 48.692 16.752 48.308C17.264 47.892 17.68 47.332 18 46.628C18.32 45.924 18.48 45.108 18.48 44.18C18.48 43.252 18.288 42.452 17.904 41.78C17.552 41.076 17.104 40.532 16.56 40.148C16.016 39.764 15.44 39.572 14.832 39.572H7.872V48.884Z" fill="black"/>
<path d="M83.034 53.204V66.74H36.128V0H82.188V13.536H51.544V26.508H77.864V39.01H51.544V53.204H83.034Z" fill="black"/>
<path d="M92.3995 66.74V0H137.707V13.536H107.815V27.918H132.443V40.42H107.815V66.74H92.3995Z" fill="black"/>
<path d="M141 66.74V32.66H148.872V59.828H165.384V66.74H141Z" fill="black"/>
<path d="M193.03 59.828V66.74H169.078V32.66H192.598V39.572H176.95V46.196H190.39V52.58H176.95V59.828H193.03Z" fill="black"/>
<path d="M202.805 32.66L210.197 44.42L217.589 32.66H226.133L214.852 49.94L225.749 66.74H217.204L210.197 55.46L203.189 66.74H194.596L205.493 49.94L194.212 32.66H202.805Z" fill="black"/>
<path d="M229.078 66.74V32.66H236.95V66.74H229.078Z" fill="black"/>
<path d="M258.397 67.028C255.837 67.028 253.517 66.548 251.437 65.588C249.389 64.596 247.613 63.284 246.109 61.652C244.637 59.988 243.501 58.132 242.701 56.084C241.901 54.004 241.501 51.86 241.501 49.652C241.501 47.38 241.917 45.22 242.749 43.172C243.613 41.124 244.797 39.3 246.301 37.7C247.837 36.068 249.645 34.788 251.725 33.86C253.805 32.932 256.077 32.468 258.541 32.468C261.069 32.468 263.357 32.964 265.405 33.956C267.485 34.916 269.261 36.228 270.733 37.892C272.237 39.556 273.389 41.428 274.189 43.508C274.989 45.556 275.389 47.652 275.389 49.796C275.389 52.068 274.973 54.228 274.141 56.276C273.309 58.324 272.125 60.164 270.589 61.796C269.053 63.396 267.245 64.676 265.165 65.636C263.117 66.564 260.861 67.028 258.397 67.028ZM249.517 49.748C249.517 51.06 249.709 52.34 250.093 53.588C250.477 54.804 251.037 55.892 251.773 56.852C252.541 57.812 253.485 58.58 254.605 59.156C255.725 59.732 257.005 60.02 258.445 60.02C259.949 60.02 261.261 59.732 262.381 59.156C263.501 58.548 264.429 57.748 265.165 56.756C265.901 55.764 266.445 54.66 266.797 53.444C267.181 52.196 267.373 50.932 267.373 49.652C267.373 48.34 267.181 47.076 266.797 45.86C266.413 44.644 265.837 43.556 265.069 42.596C264.301 41.604 263.357 40.836 262.237 40.292C261.117 39.748 259.853 39.476 258.445 39.476C256.941 39.476 255.629 39.764 254.509 40.34C253.421 40.916 252.493 41.7 251.725 42.692C250.989 43.652 250.429 44.756 250.045 46.004C249.693 47.22 249.517 48.468 249.517 49.748Z" fill="black"/>
<path d="M287.81 47.252V66.74H279.938V32.66H286.177L301.97 52.724V32.66H309.841V66.74H303.41L287.81 47.252Z" fill="black"/>
<path d="M313.925 44.804L315.077 38.708H312.917V31.7H320.741V38.9L318.917 44.804H313.925Z" fill="black"/>
<path d="M324.473 51.284C324.473 53.396 324.985 55.3 326.009 56.996C327.065 58.692 328.489 60.036 330.281 61.028C332.105 62.02 334.137 62.516 336.377 62.516C337.305 62.516 338.153 62.42 338.921 62.228C339.721 62.004 340.425 61.684 341.033 61.268C341.673 60.852 342.201 60.356 342.617 59.78C342.585 61.38 342.313 62.772 341.801 63.956C341.289 65.108 340.569 65.988 339.641 66.596C338.745 67.204 337.657 67.508 336.377 67.508C335.129 67.508 333.929 67.22 332.777 66.644C331.657 66.068 330.713 65.268 329.945 64.244L325.625 69.14C326.969 70.74 328.553 71.972 330.377 72.836C332.233 73.732 334.201 74.18 336.281 74.18C339.033 74.18 341.417 73.444 343.433 71.972C345.449 70.5 347.001 68.388 348.089 65.636C349.177 62.852 349.721 59.476 349.721 55.508C349.721 52.084 349.209 49.172 348.185 46.772C347.193 44.372 345.753 42.532 343.865 41.252C341.977 39.972 339.705 39.332 337.049 39.332C334.681 39.332 332.537 39.876 330.617 40.964C328.729 42.02 327.225 43.444 326.105 45.236C325.017 47.028 324.473 49.044 324.473 51.284ZM337.049 45.812C338.009 45.812 338.873 46.068 339.641 46.58C340.441 47.06 341.081 47.716 341.561 48.548C342.073 49.348 342.329 50.26 342.329 51.284C342.329 52.212 342.089 53.076 341.609 53.876C341.129 54.676 340.489 55.316 339.689 55.796C338.921 56.244 338.041 56.468 337.049 56.468C336.089 56.468 335.209 56.244 334.409 55.796C333.609 55.316 332.969 54.676 332.489 53.876C332.009 53.076 331.769 52.212 331.769 51.284C331.769 50.26 332.009 49.348 332.489 48.548C333.001 47.716 333.657 47.06 334.457 46.58C335.257 46.068 336.121 45.812 337.049 45.812Z" fill="black"/>
<path d="M378.562 52.676C378.562 55.492 378.019 58.004 376.931 60.212C375.843 62.388 374.354 64.1 372.466 65.348C370.578 66.596 368.435 67.22 366.035 67.22C363.667 67.22 361.523 66.596 359.603 65.348C357.715 64.1 356.226 62.388 355.138 60.212C354.05 58.004 353.507 55.492 353.507 52.676C353.507 49.86 354.05 47.364 355.138 45.188C356.226 42.98 357.715 41.252 359.603 40.004C361.523 38.724 363.667 38.084 366.035 38.084C368.435 38.084 370.578 38.724 372.466 40.004C374.354 41.252 375.843 42.98 376.931 45.188C378.019 47.364 378.562 49.86 378.562 52.676ZM370.835 52.676C370.835 51.172 370.627 49.86 370.211 48.74C369.795 47.62 369.219 46.74 368.483 46.1C367.779 45.46 366.963 45.14 366.035 45.14C365.075 45.14 364.227 45.46 363.491 46.1C362.755 46.74 362.179 47.62 361.763 48.74C361.379 49.86 361.186 51.172 361.186 52.676C361.186 54.18 361.379 55.492 361.763 56.612C362.179 57.732 362.755 58.612 363.491 59.252C364.227 59.86 365.075 60.164 366.035 60.164C366.963 60.164 367.779 59.86 368.483 59.252C369.219 58.612 369.795 57.732 370.211 56.612C370.627 55.492 370.835 54.18 370.835 52.676Z" fill="black"/>
</svg>
